<svg width="25" height="24" viewBox="0 0 25 24" fill="none" xmlns="http://www.w3.org/2000/svg">
<path d="M20.0334 10.999H22.0334C22.0334 5.869 18.1604 2 13.0234 2V4C17.0854 4 20.0334 6.943 20.0334 10.999Z" fill="white"/>
<path d="M13.0334 7.99999C15.1364 7.99999 16.0334 8.89699 16.0334 11H18.0334C18.0334 7.77499 16.2584 5.99999 13.0334 5.99999V7.99999ZM16.4554 13.443C16.2633 13.2683 16.0108 13.1752 15.7512 13.1832C15.4917 13.1912 15.2454 13.2998 15.0644 13.486L12.6714 15.947C12.0954 15.837 10.9374 15.476 9.74542 14.287C8.55342 13.094 8.19242 11.933 8.08542 11.361L10.5444 8.96699C10.7308 8.78612 10.8396 8.53982 10.8476 8.2802C10.8556 8.02059 10.7623 7.76804 10.5874 7.57599L6.89242 3.51299C6.71747 3.32035 6.4743 3.2035 6.21458 3.18725C5.95485 3.17101 5.69902 3.25665 5.50142 3.42599L3.33142 5.28699C3.15854 5.46051 3.05534 5.69145 3.04142 5.93599C3.02642 6.18599 2.74042 12.108 7.33242 16.702C11.3384 20.707 16.3564 21 17.7384 21C17.9404 21 18.0644 20.994 18.0974 20.992C18.3419 20.9783 18.5727 20.8747 18.7454 20.701L20.6054 18.53C20.7749 18.3325 20.8607 18.0768 20.8446 17.817C20.8286 17.5573 20.7119 17.3141 20.5194 17.139L16.4554 13.443Z" fill="white"/>
</svg>
